<svg id="Ebene_1" data-name="Ebene 1" xmlns="http://www.w3.org/2000/svg" viewBox="0 0 353.09 306.71"><defs><style>.cls-1{fill:#2d2047;}</style></defs><path class="cls-1" d="M223.86,106.52a30.77,30.77,0,0,0-7.36.89l-8.12-19.53,10.43-4.56a4.12,4.12,0,0,0-3.3-7.54L201.38,82a4.12,4.12,0,0,0-2.15,5.35l1.58,3.8-37.17,8-3.91-11.88h2.69a4.12,4.12,0,1,0,0-8.23H143.88a4.12,4.12,0,1,0,0,8.23h7.18l5.15,15.65-9.85,9.59a30.46,30.46,0,0,0-18.3-6.07c-16.6,0-30.11,13.19-30.11,29.42s13.51,29.42,30.11,29.42A30,30,0,0,0,157.5,142l15.29.71H173a4.12,4.12,0,0,0,3.36-1.74l28.47-40.22,4.05,9.73a29.21,29.21,0,0,0-15,25.39c0,16.18,13.47,29.34,30,29.34s30-13.16,30-29.34S240.42,106.52,223.86,106.52Zm-57.34,27.63-8.42-.39a28.81,28.81,0,0,0-5.89-15.54l6.87-6.68ZM146.37,123.9a20.88,20.88,0,0,1,3.6,9.49l-12.73-.59Zm-18.31,33.23c-12.15,0-22-9.58-22-21.35s9.89-21.35,22-21.35a22.37,22.37,0,0,1,12.42,3.72l-15.79,15.37a4.12,4.12,0,0,0,2.68,7.06l21.9,1A22,22,0,0,1,128.06,157.13Zm45.82-26.95-7.65-23.24,28.41-6.09Zm50,27c-12.12,0-22-9.55-22-21.29A21.13,21.13,0,0,1,212,118l8.16,19.62a4.12,4.12,0,0,0,3.8,2.53,4.19,4.19,0,0,0,1.58-.31,4.12,4.12,0,0,0,2.22-5.38L219.64,115a23.49,23.49,0,0,1,4.22-.39c12.12,0,22,9.55,22,21.28S236,157.14,223.86,157.14Z"/><path class="cls-1" d="M40.38,32.49v183H316.13v-183ZM224.65,195.16a70.89,70.89,0,0,1-46.4-17.23,71.19,71.19,0,1,1,0-107.92,71.18,71.18,0,1,1,46.4,125.15Z"/><path class="cls-1" d="M158,248.83a10.79,10.79,0,0,0-8.44.51c-.15.07-.29.16-.43.24.53-3.87,1.07-7.86,1.73-12.09a2.88,2.88,0,0,0-5.58-1.35,2.75,2.75,0,0,0-.28.57c-5,13.5-9,12.8-14.1,11.91a26.27,26.27,0,0,0-4.52-.51,3.68,3.68,0,0,0-.58,0,12.17,12.17,0,0,0-6.19,1.23,13.29,13.29,0,0,0-5.25,4.8c-3.58,4-10.59,11.34-13.35,13.43a20.7,20.7,0,0,1-1.22-4.34c12.9-13.5,14.54-26.66,11.43-31.9a4.9,4.9,0,0,0-5.76-2.47c-6.5,2-9.33,11.84-10.45,17.56a56.21,56.21,0,0,0-1.26,14.77,2.82,2.82,0,0,0-.36.33c-6.67,7.45-14.12,9.34-18.22,7.95a4.23,4.23,0,0,1-2.93-3.1,15.61,15.61,0,0,0,8.67-1.08c7.18-3.44,7.7-7.78,7.37-10a8.1,8.1,0,0,0-6.71-6.58c-4.25-.68-11.7,2.25-14.06,9.36l-.18.55a18.76,18.76,0,0,1-5.61-5.53,2.78,2.78,0,0,0-1.19-1,2.82,2.82,0,0,0-2-.79h0a2.88,2.88,0,0,0-2.87,2.89c0,5.22-2.68,14-10,15.24-1.13.2-1.32-.17-1.55-.6-1.84-3.5.62-12.72,2.06-14.24a2.88,2.88,0,0,0-3.58-4.52c-2.54,2-3.87,7.54-4.21,9.2-.58,2.75-1.29,7.93.37,11.7a6.69,6.69,0,0,0,6.36,4.27,9.24,9.24,0,0,0,1.54-.13c7.44-1.3,12.14-7.52,13.93-14.46a22.32,22.32,0,0,0,5.7,4c0,5.08,2.38,8.79,7,10.36a15,15,0,0,0,4.79.76c5.5,0,11.6-2.74,17-7.67a22.89,22.89,0,0,0,1,2.6,5.14,5.14,0,0,0,3.41,3.14,3.8,3.8,0,0,0,.93.11,5.57,5.57,0,0,0,2.39-.62c1.85-.9,5.65-4.51,9.29-8.24a12.49,12.49,0,0,0,8.34,9.92,12.36,12.36,0,0,0,4,.67,11.53,11.53,0,0,0,5.2-1.24,14.64,14.64,0,0,0,7.12-8.6,14.15,14.15,0,0,0-.61-11.1,11.5,11.5,0,0,0,7-3.26,158.18,158.18,0,0,1-3.37,18.94,2.87,2.87,0,0,0,5.44,1.83,10.8,10.8,0,0,0,4.2,2.59,10.81,10.81,0,0,0,8.45-.55,14.91,14.91,0,0,0,7.15-8.76C167.36,258.05,164.45,251,158,248.83Zm-85,11c1.4-4.21,6-5.75,7.67-5.48a2.39,2.39,0,0,1,1.93,1.71c.12.88-.89,2.46-4.16,4a10.18,10.18,0,0,1-5.68.52C72.77,260.4,72.85,260.15,72.94,259.88Zm27.69-12.31c1.24-6.38,3.55-11.43,5.8-12.84.78,2.24.6,10.13-6.87,19.94C99.78,252.25,100.19,249.85,100.63,247.57ZM131.21,264a8.87,8.87,0,0,1-4.21,5.26,6,6,0,0,1-4.76.27c-4.4-1.49-5.4-6.18-4.12-10a9.71,9.71,0,0,1,.88-1.93c.77-.86,1.32-1.51,1.57-1.82a2.07,2.07,0,0,0,.15-.25,7.21,7.21,0,0,1,1.41-.94,6.39,6.39,0,0,1,2.83-.66,7.16,7.16,0,0,1,2.29.39C131.71,255.8,132.46,260.25,131.21,264Zm28.39-.25a9.24,9.24,0,0,1-4.34,5.52,5.22,5.22,0,0,1-4.17.27c-4-1.36-4.47-6.06-3.21-9.86a9,9,0,0,1,4.12-5.34,5.09,5.09,0,0,1,2.28-.54,6,6,0,0,1,1.88.32C160.25,255.51,160.81,260.08,159.6,263.74Z"/><path class="cls-1" d="M179.71,255.71a7,7,0,0,1,5.13-2.19,2.88,2.88,0,0,0,1.69-5.51c-2.78-.85-7.75.3-10.92,3.64-2.82,3-3.52,7-2,11.21.87,2.38.79,4.5-.22,5.81s-3.13,1.91-5.93,1.64a2.88,2.88,0,0,0-.55,5.74q.93.09,1.8.09c4,0,7.26-1.37,9.25-3.95,2.24-2.91,2.63-7,1.06-11.31C178.28,258.75,178.49,257.06,179.71,255.71Z"/><path class="cls-1" d="M236.05,269.57c-1.77.06-3.68-1.13-5.83-2.59l-2-1.34.92-.31a13.5,13.5,0,0,0,5.41-3.24,8.79,8.79,0,0,0,2.59-7,8.55,8.55,0,0,0-4.25-6.29,12.32,12.32,0,0,0-6.33-1.56,8.49,8.49,0,0,0-4.52,1.07,8.74,8.74,0,0,0-3.4,4.52,2.49,2.49,0,0,0-.45.69c-5,11.24-16.48,17.14-20.27,15.81l-.62-.25a58.82,58.82,0,0,0,6.59-4.66c5.24-4.18,7.43-8.08,6.52-11.59-.67-2.56-2.95-4.4-6.1-4.92-4.26-.71-11.73,2.3-14.08,9.59a20,20,0,0,0-1,9,14.41,14.41,0,0,1-3.68.7,2.88,2.88,0,1,0,.28,5.76,20.71,20.71,0,0,0,5.74-1.17,10.27,10.27,0,0,0,4.46,3,9.15,9.15,0,0,0,3,.47c4.23,0,9.58-2.33,14.42-6.35-.4,1.34-.79,2.69-1.17,4a2.88,2.88,0,0,0,2,3.56,3.07,3.07,0,0,0,.79.11,2.89,2.89,0,0,0,2.77-2.09q1.06-3.74,2.21-7.46l6.91,4.7c2.32,1.58,5.49,3.73,9.3,3.59a2.88,2.88,0,0,0-.23-5.76Zm-41.2-5.72a17.9,17.9,0,0,1,.9-4.58,8.5,8.5,0,0,1,7.33-5.7l.33,0c.93.16,1.42.54,1.46.69.11.43-.48,2.4-4.54,5.63A53.71,53.71,0,0,1,194.85,263.85ZM222,261q.84-2.58,1.71-5.13c.27-.79.78-2.26,1.37-2.62a3.21,3.21,0,0,1,1.46-.22h0a6.74,6.74,0,0,1,3.43.75,2.86,2.86,0,0,1,1.44,2,3.13,3.13,0,0,1-1,2.34,8.29,8.29,0,0,1-3.22,1.83A19,19,0,0,1,222,261Z"/><path class="cls-1" d="M315.54,269.57c-1.77.06-3.68-1.13-5.82-2.59l-2-1.34.93-.31a13.64,13.64,0,0,0,5.41-3.24,8.78,8.78,0,0,0,2.58-7,8.53,8.53,0,0,0-4.24-6.29,12.38,12.38,0,0,0-6.34-1.56,8.48,8.48,0,0,0-4.51,1.07c-2.37,1.45-3.28,4.09-3.82,5.67-.8,2.31-1.56,4.64-2.31,7a2.8,2.8,0,0,0-.56.48c-6.66,7.66-14.08,9.61-18.17,8.18a4.37,4.37,0,0,1-3-3.36,15.18,15.18,0,0,0,8.7-1.12c7.18-3.54,7.68-8,7.33-10.28a8.18,8.18,0,0,0-6.68-6.66c-4.27-.71-11.73,2.3-14.09,9.59l-.14.47a21.81,21.81,0,0,1-5.61-5.55,5.75,5.75,0,0,0-3.18-1.83h0a2.87,2.87,0,0,0-2.87,2.89c0,5.4-2.68,14.46-10,15.76-1.06.19-1.24-.1-1.4-.35-1.85-3,.61-13.15,2.42-15.59a2.88,2.88,0,0,0-4.63-3.43c-2.29,3.09-6.47,16-2.69,22.06a6.41,6.41,0,0,0,5.7,3.13,9,9,0,0,0,1.61-.14c7.45-1.33,12.15-7.73,13.93-14.85a22.07,22.07,0,0,0,5.7,4.06c-.06,5.22,2.35,9,7,10.64a14.57,14.57,0,0,0,4.81.79,22.9,22.9,0,0,0,12.59-4.34c-.13.47-.27.94-.41,1.41a2.89,2.89,0,0,0,2,3.56,3.13,3.13,0,0,0,.79.11,2.88,2.88,0,0,0,2.77-2.09q1.06-3.74,2.22-7.46l6.9,4.7c2.32,1.58,5.49,3.73,9.3,3.59a2.88,2.88,0,1,0-.23-5.76Zm-41-10c1.49-4.61,6.32-5.89,7.65-5.68a2.49,2.49,0,0,1,1.93,1.82c.19,1.27-1.41,2.9-4.18,4.27a8.74,8.74,0,0,1-5.72.67C274.3,260.27,274.41,259.91,274.52,259.56Zm27,1.42q.84-2.58,1.72-5.13c.27-.79.77-2.26,1.37-2.62A3.13,3.13,0,0,1,306,253h0a6.71,6.71,0,0,1,3.43.75,2.87,2.87,0,0,1,1.45,2,3.17,3.17,0,0,1-1,2.34,8.29,8.29,0,0,1-3.22,1.83A19.09,19.09,0,0,1,301.49,261Z"/></svg>